<svg width="436" height="436" viewBox="0 0 436 436" fill="none" xmlns="http://www.w3.org/2000/svg">
<path fill-rule="evenodd" clip-rule="evenodd" d="M215.202 31.0255C216.953 30.1025 219.047 30.1025 220.798 31.0255L220.799 31.026L220.804 31.0285L220.825 31.0396L220.912 31.0856C220.99 31.1267 221.108 31.1885 221.264 31.27C221.576 31.433 222.039 31.6748 222.641 31.9871C223.845 32.6117 225.602 33.5182 227.808 34.6408C232.22 36.8866 238.418 39.9944 245.558 43.4386C259.886 50.3505 277.82 58.5279 292.688 63.8464C306.128 68.6544 324.121 73.9413 338.852 78.0484C346.197 80.0962 352.694 81.8404 357.353 83.0724C359.683 83.6883 361.552 84.1759 362.837 84.5091C363.48 84.6758 363.976 84.8038 364.311 84.8899L364.691 84.9873L364.786 85.0116L364.809 85.0176L364.815 85.019L364.816 85.0193C364.816 85.0194 364.816 85.0194 363.333 90.8333L364.816 85.0194C367.474 85.6971 369.333 88.0906 369.333 90.8333V218C369.333 275.179 331.31 322.118 294.618 354.224C276.146 370.387 257.702 383.064 243.888 391.697C236.975 396.018 231.206 399.336 227.151 401.581C225.123 402.703 223.523 403.558 222.421 404.136C221.87 404.425 221.444 404.645 221.152 404.795L220.955 404.896L220.814 404.967L220.722 405.014L220.696 405.027L220.688 405.031C220.685 405.032 220.683 405.033 218 399.667C215.317 405.033 215.315 405.032 215.312 405.031L215.304 405.027L215.278 405.014L215.186 404.967C215.138 404.943 215.076 404.912 215.002 404.874L214.848 404.795C214.556 404.645 214.13 404.425 213.579 404.136C212.478 403.558 210.877 402.703 208.849 401.581C204.794 399.336 199.025 396.018 192.112 391.697C178.298 383.064 159.854 370.387 141.382 354.224C104.691 322.118 66.6667 275.179 66.6667 218V90.8333C66.6667 88.0906 68.5264 85.6971 71.184 85.0194L72.6667 90.8333C71.184 85.0194 71.184 85.0194 71.1842 85.0193L71.1854 85.019L71.1909 85.0176L71.2143 85.0116L71.3095 84.9873L71.689 84.8899C72.0241 84.8038 72.5206 84.6758 73.1632 84.5091C74.4485 84.1759 76.3176 83.6883 78.6469 83.0724C83.3064 81.8404 89.803 80.0962 97.148 78.0484C111.879 73.9413 129.872 68.6544 143.312 63.8464C158.18 58.5279 176.114 50.3505 190.442 43.4386C197.582 39.9944 203.781 36.8866 208.192 34.6408C210.398 33.5182 212.155 32.6117 213.359 31.9871C213.961 31.6748 214.425 31.433 214.736 31.27C214.892 31.1885 215.01 31.1267 215.088 31.0856L215.175 31.0396L215.197 31.0285L215.201 31.026L215.202 31.0255ZM218 399.667L220.683 405.033C218.994 405.878 217.006 405.878 215.317 405.033L218 399.667ZM78.6667 95.4757V218C78.6667 269.821 113.31 313.715 149.284 345.193C167.146 360.822 185.035 373.124 198.472 381.521C205.184 385.716 210.768 388.927 214.661 391.082C215.974 391.809 217.095 392.415 218 392.899C218.905 392.415 220.026 391.809 221.339 391.082C225.232 388.927 230.817 385.716 237.528 381.521C250.965 373.124 268.854 360.822 286.716 345.193C322.691 313.715 357.333 269.821 357.333 218V95.4757C356.433 95.2399 355.412 94.9716 354.286 94.6737C349.587 93.4314 343.037 91.673 335.629 89.6076C320.855 85.4883 302.514 80.1065 288.646 75.1452C273.16 69.6053 254.761 61.2014 240.344 54.2467C233.111 50.7576 226.834 47.6106 222.364 45.3351C220.618 44.4461 219.146 43.6898 218 43.0974C216.854 43.6898 215.382 44.4461 213.636 45.3351C209.166 47.6106 202.889 50.7576 195.656 54.2467C181.239 61.2014 162.84 69.6053 147.354 75.1452C133.486 80.1065 115.145 85.4883 100.371 89.6076C92.9627 91.673 86.4129 93.4314 81.7144 94.6737C80.5878 94.9716 79.5673 95.2399 78.6667 95.4757ZM165.488 159.081C163.098 160.965 163 162.082 163 162.251C163 162.421 163.098 163.538 165.488 165.422C167.811 167.252 171.544 169.163 176.692 170.879C186.925 174.29 201.443 176.503 217.754 176.503C234.065 176.503 248.584 174.29 258.816 170.879C263.964 169.163 267.697 167.252 270.02 165.422C272.41 163.538 272.508 162.421 272.508 162.251C272.508 162.082 272.41 160.965 270.02 159.081C267.697 157.25 263.964 155.34 258.816 153.624C248.584 150.213 234.065 148 217.754 148C201.443 148 186.925 150.213 176.692 153.624C171.544 155.34 167.811 157.25 165.488 159.081ZM172.897 142.239C184.653 138.321 200.512 136 217.754 136C234.996 136 250.855 138.321 262.611 142.239C268.458 144.188 273.622 146.641 277.448 149.656C281.206 152.618 284.508 156.829 284.508 162.251V199.902V237.902V274.412C284.508 279.821 281.262 284.05 277.504 287.048C273.691 290.091 268.54 292.563 262.7 294.526C250.96 298.473 235.094 300.803 217.754 300.803C200.414 300.803 184.548 298.473 172.808 294.526C166.969 292.563 161.817 290.091 158.004 287.048C154.247 284.05 151 279.821 151 274.412V237.902V199.902V162.251C151 156.829 154.302 152.618 158.061 149.656C161.886 146.641 167.051 144.188 172.897 142.239ZM163 178.062V199.902C163 200.097 163.108 201.217 165.473 203.091C167.777 204.917 171.487 206.825 176.62 208.538C186.823 211.944 201.339 214.153 217.754 214.153C234.17 214.153 248.685 211.944 258.888 208.538C264.021 206.825 267.731 204.917 270.035 203.091C272.4 201.217 272.508 200.097 272.508 199.902V178.062C269.572 179.664 266.222 181.06 262.611 182.263C250.855 186.182 234.996 188.503 217.754 188.503C200.512 188.503 184.653 186.182 172.897 182.263C169.286 181.06 165.936 179.664 163 178.062ZM272.508 215.747C269.594 217.338 266.27 218.725 262.688 219.921C250.952 223.839 235.091 226.153 217.754 226.153C200.417 226.153 184.556 223.839 172.82 219.921C169.238 218.725 165.914 217.338 163 215.747V237.902C163 238.097 163.108 239.217 165.473 241.091C167.777 242.917 171.487 244.825 176.62 246.538C186.823 249.944 201.339 252.153 217.754 252.153C234.17 252.153 248.685 249.944 258.888 246.538C264.021 244.825 267.731 242.917 270.035 241.091C272.4 239.217 272.508 238.097 272.508 237.902V215.747ZM272.508 253.747C269.594 255.338 266.27 256.725 262.688 257.921C250.952 261.839 235.091 264.153 217.754 264.153C200.417 264.153 184.556 261.839 172.82 257.921C169.238 256.725 165.914 255.338 163 253.747V274.412C163 274.644 163.129 275.785 165.489 277.668C167.793 279.507 171.502 281.427 176.632 283.152C186.831 286.58 201.342 288.803 217.754 288.803C234.166 288.803 248.678 286.58 258.876 283.152C264.006 281.427 267.715 279.507 270.02 277.668C272.38 275.785 272.508 274.644 272.508 274.412V253.747Z" fill="url(#paint0_radial)"/>
<defs>
<radialGradient id="paint0_radial" cx="0" cy="0" r="1" gradientUnits="userSpaceOnUse" gradientTransform="translate(218 395.5) rotate(-90) scale(365.5 294.737)">
<stop stop-color="#50D2EE"/>
<stop offset="1" stop-color="#0F7B61"/>
</radialGradient>
</defs>
</svg>
