<svg width="436" height="436" viewBox="0 0 436 436" fill="none" xmlns="http://www.w3.org/2000/svg">
<path d="M218 399.667C218 399.667 363.333 327 363.333 218V90.8333C363.333 90.8333 317.975 79.2651 290.667 69.4959C260.314 58.6375 218 36.3333 218 36.3333C218 36.3333 175.687 58.6375 145.333 69.4959C118.025 79.2651 72.6667 90.8333 72.6667 90.8333V218C72.6667 327 218 399.667 218 399.667Z" stroke="white" stroke-width="12" stroke-linecap="round" stroke-linejoin="round"/>
<path d="M217.754 182.503C251.308 182.503 278.508 173.436 278.508 162.251C278.508 151.067 251.308 142 217.754 142C184.201 142 157 151.067 157 162.251C157 173.436 184.201 182.503 217.754 182.503Z" stroke="white" stroke-width="12" stroke-linecap="round" stroke-linejoin="round"/>
<path d="M278.508 199.902C278.508 211.107 251.506 220.153 217.754 220.153C184.002 220.153 157 211.107 157 199.902" stroke="white" stroke-width="12" stroke-linecap="round" stroke-linejoin="round"/>
<path d="M278.508 237.902C278.508 249.107 251.506 258.153 217.754 258.153C184.002 258.153 157 249.107 157 237.902" stroke="white" stroke-width="12" stroke-linecap="round" stroke-linejoin="round"/>
<path d="M157 162.251V274.412C157 285.695 184.002 294.803 217.754 294.803C251.506 294.803 278.508 285.695 278.508 274.412V162.251" stroke="white" stroke-width="12" stroke-linecap="round" stroke-linejoin="round"/>
</svg>
